<svg width="30" height="30" viewBox="0 0 30 30" fill="none" xmlns="http://www.w3.org/2000/svg">
<g clip-path="url(#clip0_1_126)">
<path fill-rule="evenodd" clip-rule="evenodd" d="M29.9754 23.1885C29.9877 22.9057 29.9877 22.5492 29.9877 22.3893L30 7.61066C30 7.43852 30 7.08197 29.9877 6.81148C29.9631 6.14754 29.9016 5.28688 29.8279 4.89344C29.7049 4.29098 29.5205 3.72541 29.2869 3.2582C29.0041 2.70492 28.6475 2.21311 28.2172 1.78279C27.7869 1.35246 27.2951 0.995902 26.7418 0.713115C26.2746 0.479508 25.709 0.295082 25.1189 0.172131C24.7131 0.0860656 23.8525 0.0368852 23.1762 0.0122951C22.8934 0 22.5369 0 22.3771 0H7.61066C7.45082 0 7.09426 0 6.82377 0.0122951C6.14754 0.0368852 5.28689 0.0860656 4.89344 0.172131C4.29098 0.295082 3.72541 0.479508 3.2582 0.713115C2.70492 0.995902 2.21311 1.35246 1.78279 1.78279C1.35246 2.21311 0.995902 2.70492 0.713115 3.2582C0.479508 3.72541 0.295082 4.29098 0.172131 4.88115C0.0983607 5.27459 0.0368852 6.14754 0.0122951 6.81148C0 7.09426 0 7.45082 0 7.61066V22.377V23.2008C0.0245902 23.8648 0.0860656 24.7254 0.159836 25.1189C0.282787 25.7213 0.467213 26.2869 0.70082 26.7541C0.983607 27.3074 1.34016 27.7992 1.77049 28.2295C2.20082 28.6598 2.69262 29.0164 3.2459 29.2992C3.71311 29.5328 4.27869 29.7172 4.86885 29.8402C5.27459 29.9262 6.13525 29.9754 6.81148 30C7.09426 30.0123 7.45082 30.0123 7.61066 30.0123H22.3771C22.5492 30.0123 22.9057 30.0123 23.1762 30C23.8402 29.9754 24.7008 29.9139 25.0943 29.8402C25.6967 29.7172 26.2623 29.5328 26.7295 29.2992C27.2828 29.0164 27.7746 28.6598 28.2049 28.2295C28.6352 27.7992 28.9918 27.3074 29.2746 26.7541C29.5082 26.2869 29.6926 25.7213 29.8156 25.1311C29.9016 24.7254 29.9508 23.8648 29.9754 23.1885ZM15.3319 3.94669C18.209 3.94669 20.9139 5.06554 22.9426 7.09423C24.9713 9.12292 26.0901 11.8278 26.0901 14.6926C26.0901 20.6311 21.2582 25.4508 15.3319 25.4508C13.5369 25.4508 11.7664 25.0082 10.1926 24.1475L4.48769 25.6475L6.01228 20.0778C5.06556 18.4549 4.57375 16.5983 4.57375 14.7049C4.57375 8.76636 9.40572 3.94669 15.3319 3.94669ZM10.7828 22.4016C12.1475 23.2131 13.7213 23.6434 15.3319 23.6434C20.2623 23.6434 24.2705 19.6352 24.2705 14.6926C24.2705 12.3073 23.336 10.0573 21.6516 8.37292C19.9672 6.68849 17.7172 5.75406 15.3319 5.75406C10.4016 5.75406 6.39342 9.76226 6.39342 14.6926C6.39342 16.377 6.86064 18.0246 7.75818 19.4508L7.9672 19.795L7.06965 23.0901L10.4508 22.2049L10.7828 22.4016ZM18.4057 16.0696C18.6516 16.1557 19.9672 16.8073 20.2377 16.9426C20.2885 16.968 20.3364 16.9913 20.381 17.013C20.5741 17.1069 20.7088 17.1724 20.7787 17.2623C20.8401 17.3729 20.8401 17.9139 20.6188 18.5409C20.3852 19.168 19.3156 19.7459 18.7992 19.8196C18.3319 19.8811 17.7418 19.918 17.1024 19.709C16.709 19.586 16.2049 19.4262 15.5656 19.1434C13.0313 18.0441 11.3247 15.5833 11.02 15.1439C11.001 15.1164 10.9874 15.0969 10.9795 15.086C10.976 15.0813 10.972 15.0759 10.9675 15.0698C10.7958 14.8368 9.88523 13.6012 9.88523 12.3073C9.88523 11.0833 10.492 10.434 10.7744 10.1317C10.7955 10.1091 10.8148 10.0884 10.8319 10.0696C11.0779 9.79914 11.3606 9.73767 11.5451 9.73767C11.7295 9.73767 11.9016 9.73767 12.0615 9.74996C12.0815 9.75151 12.1026 9.7517 12.1245 9.75189C12.2769 9.75323 12.4704 9.75494 12.6639 10.2172C12.7639 10.456 12.9291 10.8578 13.0858 11.2391C13.2761 11.7021 13.454 12.1348 13.4877 12.209C13.5615 12.3442 13.5983 12.4918 13.5123 12.6762C13.5042 12.6923 13.4965 12.7078 13.489 12.723C13.4163 12.8694 13.3644 12.9739 13.2418 13.1188C13.1826 13.1834 13.1211 13.2574 13.0603 13.3305C12.9821 13.4244 12.9052 13.5169 12.836 13.586C12.7008 13.7213 12.5533 13.8688 12.7131 14.1393L12.7222 14.154C12.8926 14.4295 13.4284 15.2957 14.2131 15.9959C15.0762 16.7562 15.819 17.0786 16.1977 17.243C16.2722 17.2753 16.3326 17.3015 16.377 17.3237C16.6475 17.459 16.7951 17.4467 16.9549 17.2623C17.1147 17.0778 17.6188 16.4754 17.8033 16.2049C17.9754 15.9344 18.1598 15.9836 18.4057 16.0696Z" fill="#FFF4D8"/>
</g>
<defs>
<clipPath id="clip0_1_126">
<rect width="30" height="30" fill="white"/>
</clipPath>
</defs>
</svg>
